<?xml version="1.0" standalone="no"?>
<!DOCTYPE svg PUBLIC "-//W3C//DTD SVG 20010904//EN"
 "http://www.w3.org/TR/2001/REC-SVG-20010904/DTD/svg10.dtd">
<svg version="1.0" xmlns="http://www.w3.org/2000/svg"
 width="385.000000pt" height="385.000000pt" viewBox="0 0 385.000000 385.000000"
 preserveAspectRatio="xMidYMid meet">
<metadata>
Created by potrace 1.14, written by Peter Selinger 2001-2017
</metadata>
<g transform="translate(0.000000,385.000000) scale(0.100000,-0.100000)"
fill="#000000" stroke="none">
<path d="M1766 3601 c6 -11 3 -13 -12 -7 -15 6 -16 4 -7 -5 9 -9 9 -15 -2 -25
-18 -19 -25 -17 -19 4 4 12 0 10 -13 -6 -17 -21 -21 -22 -33 -8 -11 14 -10 16
4 10 9 -3 16 -1 16 4 0 6 -11 9 -25 6 -14 -2 -25 -1 -25 4 0 4 -9 8 -20 8 -11
0 -20 -7 -20 -16 0 -13 -1 -13 -10 0 -5 8 -10 10 -10 5 0 -6 6 -17 13 -24 8
-9 8 -12 0 -7 -7 3 -14 -2 -18 -14 -7 -21 -20 -26 -29 -11 -3 5 -15 7 -26 4
-11 -3 -27 0 -35 7 -13 11 -14 10 -10 -2 5 -11 -4 -14 -39 -13 -36 0 -43 -2
-34 -12 8 -11 7 -12 -8 -6 -10 3 -22 11 -26 17 -5 7 -8 7 -8 -2 0 -9 -7 -11
-20 -7 -14 5 -20 2 -20 -9 0 -9 5 -16 11 -16 5 0 7 4 4 10 -4 6 1 7 11 3 11
-4 13 -8 6 -11 -7 -2 -10 -7 -8 -11 3 -4 -9 -6 -27 -5 -43 3 -45 4 -22 14 17
7 17 9 3 9 -10 1 -26 -7 -36 -17 -17 -17 -20 -18 -31 -3 -10 14 -11 13 -7 -6
2 -13 0 -23 -5 -23 -5 0 -9 -6 -9 -14 0 -9 -7 -13 -19 -11 -14 2 -18 -1 -14
-14 3 -11 -2 -21 -12 -25 -9 -3 -14 -10 -10 -15 3 -5 0 -13 -6 -17 -8 -4 -9
-3 -5 4 4 7 1 12 -8 12 -9 0 -16 -7 -16 -16 0 -8 -3 -13 -7 -11 -5 3 -14 -1
-21 -9 -7 -8 -10 -14 -7 -14 3 0 -8 -13 -24 -29 -16 -16 -27 -32 -24 -35 4 -3
1 -6 -6 -6 -8 0 -11 -7 -7 -15 3 -8 0 -18 -7 -22 -16 -11 -40 -54 -33 -60 3
-3 -2 -12 -10 -20 -8 -8 -12 -19 -9 -24 4 -5 1 -9 -5 -9 -6 0 -8 -4 -5 -10 3
-5 2 -10 -3 -10 -5 0 -8 -13 -7 -30 1 -16 0 -30 -4 -30 -3 0 -6 -15 -5 -32 0
-18 -4 -41 -8 -50 -5 -11 -5 -18 1 -18 10 0 7 -72 -4 -90 -6 -9 -4 -11 4 -6
15 10 11 -25 -4 -36 -6 -5 -5 -11 4 -17 11 -7 11 -14 -2 -40 -10 -21 -12 -33
-5 -37 7 -5 8 -2 3 6 -5 9 -4 11 4 6 6 -4 8 -13 4 -19 -12 -18 -11 -71 1 -79
7 -5 7 -8 -2 -8 -9 0 -10 -5 -3 -19 6 -10 7 -22 3 -26 -10 -10 -9 -65 2 -65 6
0 2 -6 -9 -13 -14 -11 -15 -16 -5 -22 9 -6 11 -4 5 5 -5 9 -4 11 4 6 8 -5 9
-12 3 -19 -12 -15 -21 -77 -11 -77 4 0 5 -9 2 -20 -3 -11 0 -20 6 -20 8 0 9
-5 1 -19 -6 -12 -6 -21 0 -23 23 -8 27 -142 4 -144 -25 -2 -60 -28 -63 -47
-16 -113 2 -232 68 -457 17 -58 33 -123 35 -146 5 -51 42 -131 67 -145 11 -5
19 -6 19 -2 1 20 40 -42 40 -63 0 -12 4 -25 9 -28 5 -3 12 -18 16 -33 3 -15
10 -30 15 -33 13 -8 19 -80 9 -109 -4 -14 -10 -37 -11 -51 -2 -14 -21 -85 -43
-158 -38 -127 -41 -133 -80 -159 -22 -14 -44 -32 -48 -39 -4 -8 -37 -28 -74
-45 -78 -38 -155 -97 -179 -138 -19 -32 -26 -36 -131 -76 -45 -16 -87 -41
-114 -66 -23 -21 -45 -39 -48 -39 -4 0 -26 -18 -49 -41 -26 -25 -64 -48 -99
-60 -31 -10 -80 -37 -109 -59 -30 -22 -66 -45 -81 -51 -40 -15 -93 -58 -93
-75 0 -12 225 -14 1725 -14 1036 0 1725 4 1725 9 0 5 -13 45 -29 88 -17 43
-32 94 -35 114 -8 52 -21 83 -76 179 -67 115 -118 167 -199 200 -20 8 -54 27
-76 41 -22 14 -55 34 -74 44 -39 20 -141 56 -141 50 0 -2 -19 3 -42 11 -47 17
-64 21 -121 28 -21 3 -42 8 -48 12 -6 3 -25 8 -42 11 -53 8 -130 37 -135 50
-2 7 8 24 22 38 14 14 26 28 26 31 0 3 6 12 13 19 24 28 32 40 54 85 13 25 33
63 46 85 72 123 111 335 118 640 1 44 4 85 7 90 10 16 12 33 17 134 2 51 6 96
9 98 3 3 -1 15 -9 25 -7 11 -11 27 -8 34 3 8 0 14 -7 14 -8 0 -9 7 -5 18 4 9
10 23 13 31 4 10 1 12 -9 6 -11 -7 -12 -6 -2 6 7 9 14 30 15 48 1 18 6 35 11
38 4 2 2 12 -5 21 -11 13 -11 14 0 8 10 -6 13 -2 11 15 -2 13 0 30 5 37 4 7 2
20 -6 29 -11 14 -11 16 1 8 11 -6 13 -4 8 7 -3 9 0 21 6 27 8 8 7 11 -3 11
-12 0 -13 2 -1 9 9 6 10 11 2 15 -7 5 -7 15 -1 31 7 18 6 25 -3 25 -8 0 -8 3
2 9 9 6 10 11 2 15 -6 4 -7 15 -2 29 5 13 6 30 1 38 -4 7 -8 37 -8 64 0 60 -4
78 -17 87 -6 5 -5 8 4 8 11 0 11 3 1 15 -7 8 -10 15 -7 15 3 0 2 14 -3 30 -5
18 -5 30 1 30 5 0 9 4 9 10 0 5 -8 6 -17 3 -12 -5 -15 -2 -11 9 4 9 1 21 -5
28 -9 10 -7 11 13 5 24 -7 24 -7 5 9 -14 11 -16 15 -5 16 11 0 11 3 2 12 -17
17 -15 31 3 25 8 -4 17 -1 21 5 4 7 3 8 -4 4 -16 -10 -15 7 1 23 9 11 9 12 0
7 -8 -5 -11 -2 -7 7 3 9 14 13 27 11 12 -2 6 2 -13 9 l-35 14 27 6 c19 5 26
12 21 23 -3 9 -1 14 7 12 7 -2 14 6 16 17 1 11 8 21 13 23 7 2 5 10 -4 19 -8
8 -12 19 -9 25 4 7 2 8 -4 4 -9 -5 -9 -13 -2 -26 8 -15 6 -24 -10 -40 -11 -11
-20 -25 -20 -32 0 -6 -3 -8 -6 -5 -9 9 -14 58 -5 53 4 -3 13 5 20 16 12 19 11
20 -6 14 -17 -6 -17 -6 1 8 10 9 15 20 10 27 -4 7 -3 10 4 5 16 -10 26 14 12
27 -7 7 -11 8 -8 2 6 -13 -28 -46 -38 -37 -4 4 -4 1 0 -5 4 -7 2 -13 -3 -13
-6 0 -11 6 -11 13 0 8 -3 7 -10 -3 -11 -18 -23 -8 -14 14 3 9 14 16 23 17 12
0 12 2 -4 9 -11 5 -14 9 -8 9 7 1 15 12 19 26 3 14 10 25 16 25 5 0 6 5 2 12
-5 7 -3 8 6 3 8 -5 18 -1 27 10 7 11 13 14 13 7 0 -6 6 -9 14 -6 8 3 12 12 9
20 -3 8 -9 12 -13 9 -4 -3 -11 2 -14 11 -9 22 -8 24 9 24 8 0 15 -5 15 -10 0
-6 6 -5 14 2 8 7 10 15 5 16 -5 2 -6 9 -3 14 4 7 2 8 -5 4 -6 -4 -8 -12 -5
-18 4 -7 2 -8 -5 -4 -6 4 -9 12 -5 17 6 11 -17 69 -28 69 -4 0 -7 8 -7 18 -1
37 -5 51 -12 47 -3 -3 -12 9 -19 25 -7 17 -18 31 -24 31 -53 5 -83 10 -93 14
-7 2 -13 0 -13 -4 0 -5 -10 -9 -22 -8 -44 1 -180 -33 -190 -48 -5 -6 -8 -5 -8
3 0 10 -5 10 -20 2 -11 -6 -20 -9 -20 -7 0 3 -21 0 -47 -4 -33 -7 -49 -6 -54
3 -4 6 -15 13 -23 14 -9 1 -14 -2 -10 -7 3 -5 10 -7 15 -4 5 4 9 2 9 -4 0 -20
-20 -21 -41 -2 -12 11 -26 18 -31 15 -16 -10 -79 -10 -85 0 -4 5 -1 6 7 1 9
-5 11 -4 6 4 -6 9 -11 9 -21 1 -10 -9 -19 -6 -36 11 -12 12 -20 16 -17 8 4 -9
-2 -14 -18 -15 -16 -1 -24 4 -25 15 0 10 -2 11 -6 3 -2 -6 -9 -10 -14 -6 -5 3
-9 0 -9 -7 0 -8 -4 -8 -12 -2 -19 15 -50 12 -44 -3 3 -8 0 -11 -9 -7 -8 3 -13
8 -10 12 2 4 -2 8 -10 8 -8 0 -15 -4 -15 -9 0 -4 -13 -7 -30 -6 -16 1 -30 5
-30 8 0 3 -7 15 -16 26 -8 10 -12 13 -8 5z m433 -85 c0 -8 -2 -8 -5 0 -3 7
-14 10 -24 7 -22 -6 -28 12 -7 20 15 5 37 -11 36 -27z m531 -193 c-1 -16 -28
-43 -44 -43 -21 0 -16 22 9 37 23 14 35 16 35 6z m-8 -161 c-7 -2 -10 -7 -8
-11 3 -4 -1 -8 -8 -8 -7 0 -13 6 -13 13 0 7 4 11 9 8 4 -3 8 0 8 6 0 6 5 8 12
4 9 -6 9 -9 0 -12z"/>
<path d="M1556 3535 c4 -8 8 -15 10 -15 2 0 4 7 4 15 0 8 -4 15 -10 15 -5 0
-7 -7 -4 -15z"/>
<path d="M1195 3450 c-3 -5 1 -10 10 -10 9 0 13 5 10 10 -3 6 -8 10 -10 10 -2
0 -7 -4 -10 -10z"/>
<path d="M2785 3261 c-3 -5 -2 -12 3 -15 5 -3 9 1 9 9 0 17 -3 19 -12 6z"/>
</g>
</svg>
