<svg xmlns="http://www.w3.org/2000/svg" version="1.0" viewBox="0 0 1280 791">
  <path d="M688.1 2.6c-8.3 2.2-15 6.2-22.2 13.4-10.5 10.4-11.3 12.7-21.8 63.5-4.9 24.2-15.5 75.7-23.5 114.5s-21 102.2-29 141-17.9 86.9-22 107L522 673.5c-6 29.1-11.4 56-12 59.7-2.5 16 4.6 34.7 17.2 45 22.7 18.6 55.4 15 72.9-8.2 7.7-10.1 5.7-2.3 27.9-110.3 6-29.5 16-77.8 22-107.2 6.1-29.4 16-77.6 22-107 6.1-29.4 16-77.6 22-107 6.1-29.4 16-77.6 22-107 14.8-71.7 32.7-159.3 34.5-168.2 3.9-18.9-.6-34.5-13.4-47.4-7.1-7.2-13.8-11.1-22.8-13.4-7.1-1.9-19.1-1.8-26.2.1zM305 81c-6.4 1.1-13.9 4.2-19.1 7.7-2.4 1.7-65.7 64.2-140.5 138.9C-2.8 375.5 5.1 367 1.5 382.1c-1.9 8.2-1.9 15.9 0 23.4 3.8 14.6-4.1 6.1 142.9 153.4 89.4 89.6 138.1 137.7 142.1 140.2 9.2 6.1 17.6 8.3 29.8 7.6 11.8-.6 18.4-2.9 27.6-9.5 16.1-11.8 24-34.5 18.5-53.3-4.2-14.2.6-9-124.1-133.9L122 393.5 237.5 278c63.6-63.5 116.9-117.5 118.5-119.9 6.7-10 9.7-26 7.1-38C357.5 94 331.4 76.5 305 81zm650.4.4c-18.9 4.3-34.5 20-38.5 38.7-2.6 12 .4 28 7.1 38 1.6 2.4 54.9 56.4 118.5 119.9L1158 393.5 1041.7 510C917 634.9 921.8 629.7 917.6 643.9c-5.5 18.8 2.4 41.5 18.5 53.3 9.2 6.6 15.8 8.9 27.6 9.5 12.2.7 20.6-1.5 29.8-7.6 4-2.5 52.7-50.6 142.1-140.2 147-147.3 139.1-138.8 142.9-153.4 1.9-7.5 1.9-15.2 0-23.4-3.6-15.1 4.3-6.6-143.9-154.5-74.8-74.7-138.3-137.4-141.1-139.2-10.4-6.9-25.9-9.8-38.1-7z"/>
</svg>