<svg xmlns="http://www.w3.org/2000/svg" viewBox="85.96 51.12 298.39 314.99"><path d="M321.44 200.53a85.8 85.8 0 0 0-28.83-64.22 87.81 87.81 0 0 0-67.28-21.4c-39.76 4.36-72.09 36.69-76.02 76.45-2.62 26.65 6.55 52.86 25.78 71.64 6.99 7 12.23 14.86 15.29 23.6-3.5.87-6.12 4.36-6.12 8.3 0 4.8 3.93 8.73 8.74 8.73v10.05c-4.8 0-8.74 3.93-8.74 8.74s3.93 8.74 8.74 8.74v3.5c0 18.34 17.47 31.45 42.38 31.45 24.9 0 42.37-12.67 42.37-31.46v-3.5c4.8 0 8.74-3.92 8.74-8.73s-3.93-8.74-8.74-8.74v-10.05c4.8 0 8.74-3.93 8.74-8.73 0-3.94-2.62-7.43-6.12-8.3 3.06-8.74 8.3-16.6 15.3-23.6 16.16-16.6 25.77-38.88 25.77-62.47zm-61.6 102.67v10.05h-49.8V303.2h49.8zm-24.9 45c-10.05 0-24.9-3.5-24.9-13.98v-3.5h49.8v3.5c0 10.48-14.85 13.98-24.9 13.98zm26.65-62.48h-53.3a78.1 78.1 0 0 0-21.4-35.82c-15.3-14.86-23.16-35.83-20.54-57.23 3.5-31.9 28.83-57.67 60.73-61.17 2.62-.43 5.24-.43 7.86-.43 17.04 0 33.2 6.11 45.87 17.47 14.42 13.1 23.16 31.9 23.16 51.55 0 18.79-7.43 36.7-21.41 49.8a77.2 77.2 0 0 0-20.97 35.83zM234.94 94.8c4.8 0 8.74-3.93 8.74-8.73V59.86c0-4.81-3.94-8.74-8.74-8.74s-8.74 3.93-8.74 8.74v26.2c0 4.81 3.93 8.75 8.74 8.75zM148 125.82c1.75 1.75 3.93 2.63 6.12 2.63s4.36-.88 6.11-2.63a8.45 8.45 0 0 0 0-12.23l-18.35-18.78c-3.5-3.5-8.73-3.5-12.23 0s-3.5 8.73 0 12.23L148 125.82zM129.65 200.53c0-4.8-3.93-8.74-8.74-8.74H94.7c-4.8 0-8.74 3.94-8.74 8.74s3.93 8.74 8.74 8.74h26.21c4.8 0 8.74-3.93 8.74-8.74zM148 274.8l-18.79 18.79a8.45 8.45 0 0 0 0 12.23c1.75 1.75 3.94 2.62 6.12 2.62s4.37-.87 6.12-2.62l18.78-18.79c3.5-3.5 3.5-8.73 0-12.23s-8.74-3.06-12.23 0zM321.88 274.8c-3.5-3.5-8.74-3.5-12.23 0s-3.5 8.74 0 12.23l18.78 18.79c1.75 1.75 3.93 2.62 6.12 2.62s4.37-.87 6.11-2.62a8.45 8.45 0 0 0 0-12.23l-18.78-18.79zM375.61 191.8h-26.2c-4.81 0-8.75 3.93-8.75 8.73s3.94 8.74 8.74 8.74h26.21c4.81 0 8.74-3.93 8.74-8.74s-3.93-8.74-8.74-8.74zM315.76 128.45c2.19 0 4.37-.88 6.12-2.63l18.78-18.78c3.5-3.5 3.5-8.74 0-12.23s-8.73-3.5-12.23 0l-18.78 18.78a8.45 8.45 0 0 0 0 12.23 8.63 8.63 0 0 0 6.11 2.63z"></path><path id="filament" d="M212.84 288.35a13.37 13.37 0 0 1-7.3-3.47c-3.37-3.05-4.6-6.07-4.4-10.62.1-2.51.27-3.21 1.23-5.06a14.64 14.64 0 0 1 5.98-6.07c2.84-1.37 5.02-1.75 10.3-1.75h4.89v-39.06l1.02-.83c1.32-1.08 2.44-1.05 3.63.1l.96.92V261.38h11.23V222.5l.96-.92c.6-.54 1.32-.92 1.85-.92s1.25.38 1.85.92l.95.92V261.38h4.9c5.28 0 7.45.38 10.3 1.75a14.64 14.64 0 0 1 5.97 6.07c.96 1.84 1.13 2.54 1.22 5.06.2 4.54-1.02 7.57-4.39 10.62-7.66 7-20.44 3.4-23.08-6.49-.37-1.3-.53-3.37-.53-6.74v-4.87h-11.23v4.87c0 5.57-.43 7.7-2.08 10.37-2.9 4.64-8.35 7.1-14.23 6.33Zm6.04-6.17a8.46 8.46 0 0 0 4.3-5.12c.2-.74.36-3.34.36-5.8v-4.48h-4.56c-5.94 0-7.53.42-9.84 2.68-1.82 1.75-2.45 3.11-2.45 5.56a8.2 8.2 0 0 0 4.7 7.32c2.1.98 5.21.92 7.5-.16Zm39.24.16c5.11-2.39 6.34-9.1 2.37-12.98-2.08-2.04-3.47-2.39-9.28-2.51l-5.22-.13v4.58c0 5.22.43 7.1 1.99 8.9 2.24 2.64 6.93 3.63 10.14 2.14Z" transform="rotate(180 234.77 254.6)"></path></svg>